<?xml version="1.0" encoding="utf-8"?>
<!-- Generator: Adobe Illustrator 26.0.2, SVG Export Plug-In . SVG Version: 6.00 Build 0)  -->
<svg version="1.1" id="Layer_1" xmlns="http://www.w3.org/2000/svg" xmlns:xlink="http://www.w3.org/1999/xlink" x="0px" y="0px"
	 viewBox="0 0 301 177.4" style="enable-background:new 0 0 301 177.4;" xml:space="preserve">
<style type="text/css">
	.st0{clip-path:url(#SVGID_00000132056094401587309100000010070232051608441506_);}
	.st1{fill:#FFFFFF;}
	.st2{fill:#FFFFFF;fill-opacity:0;}
	.st3{clip-path:url(#SVGID_00000059995910278035433920000017871276076879827129_);}
</style>
<g id="Group_73" transform="translate(-853 -39)">
	<g id="Group_38" transform="translate(106.944 -15)">
		<g id="Group_64">
			<g id="Group_36" transform="translate(788.5 84)">
				<g id="Group_32">
					<g>
						<defs>
							<rect id="SVGID_1_" x="0" y="0" width="214.6" height="147.4"/>
						</defs>
						<clipPath id="SVGID_00000088839872120907330890000016743286928102407305_">
							<use xlink:href="#SVGID_1_"  style="overflow:visible;"/>
						</clipPath>
						<g id="Group_31" style="clip-path:url(#SVGID_00000088839872120907330890000016743286928102407305_);">
							<path id="Path_62" class="st1" d="M81.8,3.8c-2.2,3.8-2.7,8.2-1.3,12.4c0.4,1.3,1,2.6,1.7,3.9c0.8,1.2,1.7,2.3,2.7,3.3
								c2.9,2.7,6.1,5.1,9.6,6.9c0.4,0.1,0.7,0.4,0.9,0.7l0.3,0.4c0.1,3.8-1,7.5-3.1,10.6c-1.1,1.5-2.5,2.8-4.1,3.8
								c-1.2,1-2.7,2.1-2.7,3.7c0.2,2.7,3.1,4.3,3.8,6.8c1.2,4.6-2.8,9.1-5.9,11.9c0,0,0-0.3,0-0.3c1.4,1,2.4,2.6,2.6,4.3
								c0,1.1-0.4,2.1-1.2,2.9c-0.9,1-2.2,1.5-2.8,2.6c-1.3,2.3,0,5,1.2,7.1c1.9,3.8,1.3,9-2.2,11.6c-7.7,5.8-23.2,1.4-31.7-1.1
								c-7.7-2.2-15.2-5-22.5-8.4c-7.3-3.6-14.4-8-19.6-14.3C4,68.5,1.5,63.6,0,58.4l0.4-0.2C2.9,62.8,6,67,9.6,70.8
								C16.9,78,26.4,82.9,35.8,87c9.6,4,19.5,7.8,29.8,9.7c6.7,1.2,17.7,1.6,17.7-7.7c0.1-2-0.8-3.7-1.6-5.4
								c-1.1-2.6-1.2-5.9,1.4-7.6c3.7-2.2,3.3-5.3,0.2-7.8c2.5-2.4,5.1-5.5,5.7-9c0.3-1.7-0.3-3.4-1.5-4.5c-2-2.1-4.2-5.1-1.8-7.9
								c1.3-1.3,2.6-2.6,4.1-3.7c3.2-2.9,4.1-7.5,5.1-11.6l0.3,0.4c-0.4,0-0.8-0.1-1.1-0.3l-1-0.5C88,28.8,83.9,25.2,81,20.8
								c-1.8-2.6-2.7-5.6-2.5-8.8c0.1-3.1,1.2-6,3-8.5L81.8,3.8z"/>
							<path id="Path_63" class="st1" d="M1.7,117.2C5.1,107.7,12,99.9,21,95.4c4.5-2.2,9.5-3.3,14.6-3.4c5,0,9.9,1,14.5,2.8
								l-0.1,0.4c-4.7-0.9-9.5-1.2-14.2-0.9c-12,0.8-22.3,7.8-29.5,17.1c-1.5,1.9-2.9,3.9-4.1,5.9L1.7,117.2z"/>
							<path id="Path_64" class="st1" d="M77,44.1c0,0,7.1-7.6,9.1-5.2S84.3,42,84.3,42S77.4,43.3,77,44.1"/>
							<path id="Path_65" class="st1" d="M83,73.6c0.3,0.3,0.8,0.4,1.1,0.1c0,0,0,0,0.1-0.1c0.7-0.9,1.5-2.5-1.1-4.4
								c-3.7-2.7-12.6-1.6-12.6-1.6S79.3,69.6,83,73.6"/>
							<path id="Path_66" class="st1" d="M82.7,57.1c-3.6,1.3-7.2,2.9-10.5,4.7c-2.1,1.2-9.3,5.9-9.1,5.9c9.2,0.7,17.3,4.6,18.3,5.6
								c0.9,0.9,2.2,1.4,3.5,1.3l0.7-0.5l0.3-0.7c0,0,0.6-2.6-1.2-4.1c-0.8-0.7-0.9-1.1-1.1-1.1l3.5-3.8l1.6-3.7
								C89.7,56.8,86.3,55.8,82.7,57.1 M79.2,67c-0.7-0.2-5.2-1.5-5.2-1.5s3.7-4.7,6.5-1.9S81.1,67.4,79.2,67"/>
							<path id="Path_67" class="st1" d="M81,18.9c0.9,0.4,2,0.7,3,0.9c0.6-0.1-1,0.4-2,0.4s7,1.5,7.6,1.1c-2,1-4.2,1.2-6.4,0.6
								C79.7,20.6,81,18.9,81,18.9"/>
							<path id="Path_68" class="st1" d="M145.4,123.6l6.7-2.9l3.4-1.5l1.7-0.7c0.3-0.1,0.6-0.3,0.8-0.4c0.3-0.1,0.5-0.3,0.8-0.4
								c1-0.7,1.9-1.5,2.8-2.3s1.8-1.6,2.7-2.5c1.8-1.7,3.6-3.3,5.3-5c1.7-1.7,3.3-3.6,5-5.4s3.3-3.6,5-5.4c0.9-0.9,1.8-1.7,2.7-2.5
								c0.5-0.4,1-0.7,1.5-1.1c0.5-0.3,1.1-0.6,1.7-0.7c0.6-0.1,1.2-0.2,1.9-0.1c0.6,0,1.3,0.3,1.7,0.8c0.2,0.3,0.3,0.6,0.4,0.9
								c0,0.1,0,0.2,0,0.2c0,0.1,0,0.2,0,0.3c-0.1,0.1-0.2,0.3-0.3,0.4c-0.4,0.5-0.7,1-1.1,1.5c-1.5,1.9-3,3.9-4.6,5.8
								c-1.6,1.9-2.9,3.9-4.4,5.9c-0.7,1-1.5,2-2.2,2.9c-0.8,0.9-1.5,1.9-2.3,2.9c-1.4,2-2.8,4-4.3,6c-0.7,1-1.4,2-2.2,3l-0.6,0.7
								l-0.3,0.4l-0.2,0.2c-0.1,0.1-0.2,0.2-0.3,0.2c-0.5,0.4-1.1,0.7-1.6,1l-6.3,3.8c-2.1,1.3-4.2,2.5-6.4,3.7
								c-1.1,0.6-2.1,1.2-3.2,1.8l-1.6,0.9l-0.8,0.4c-0.3,0.2-0.6,0.3-0.9,0.4l-0.1-0.4c0.2-0.1,0.5-0.3,0.8-0.4l0.8-0.5l1.6-0.9
								l3.1-1.9l6.3-3.8l6.3-3.8c0.5-0.3,1.1-0.7,1.5-1c0,0,0.1,0,0.1-0.1l0.1-0.2l0.3-0.3l0.6-0.7c0.8-1,1.5-1.9,2.3-2.9
								c1.5-1.9,3.1-3.8,4.6-5.7c0.8-0.9,1.6-1.9,2.4-2.8c0.8-0.9,1.5-1.9,2.2-2.9c2.8-4,6.1-7.7,9-11.6c0.4-0.5,0.7-1,1.1-1.5
								c0.1-0.1,0.2-0.2,0.2-0.4c0,0,0-0.1,0-0.2c0-0.1,0-0.1,0-0.2c-0.1-0.3-0.2-0.6-0.4-0.8c-0.4-0.5-0.9-0.7-1.5-0.8
								c-0.6-0.1-1.2,0-1.8,0.1c-0.6,0.1-1.1,0.4-1.6,0.7c-0.5,0.3-1,0.7-1.5,1.1c-0.9,0.8-1.8,1.6-2.7,2.5
								c-3.4,3.5-6.5,7.3-9.9,10.9c-1.8,1.7-3.5,3.4-5.4,5.1c-0.9,0.8-1.8,1.6-2.7,2.5c-0.9,0.8-1.8,1.6-2.9,2.4
								c-0.3,0.2-0.5,0.3-0.8,0.5c-0.3,0.1-0.6,0.3-0.8,0.4l-1.7,0.7l-3.4,1.5l-6.8,2.8L145.4,123.6z"/>
							<path id="Path_69" class="st1" d="M82.1,146.8c1.1-3.1,2.2-6.3,3.5-9.4c0.7-1.6,1.5-3.1,2.4-4.5c0.4-0.7,0.9-1.4,1.4-2.1
								l0.7-1l0.2-0.3l0.1-0.1l0,0c0,0,0,0,0.1-0.1l0.1-0.1c0.1-0.2,0.3-0.3,0.4-0.5c2.4-2.5,5.5-4.4,8.8-5.6c1.6-0.6,3.3-1,5-1.3
								c0.9-0.1,1.7-0.2,2.6-0.3c0.2,0,0.4,0,0.6,0l0.2,0c0,0,0.1,0,0.1,0h0h0.1l0.3,0l1.2,0c6.6,0.4,13.3,0.4,19.9,0.1
								c0.4,0,0.8-0.1,1.2-0.1l0.6-0.1l0.2,0h0c0,0-0.1,0-0.1,0l0.1,0l0.3-0.2c0.3-0.2,0.7-0.4,1-0.7s0.7-0.5,1-0.7
								c1.3-1,2.5-2.1,3.7-3.3c1.2-1.2,2.3-2.4,3.3-3.7s2.1-2.6,3.1-3.9s2.1-2.6,3.2-3.9s2.2-2.5,3.3-3.7l1.7-1.8
								c0.6-0.6,1.1-1.2,1.7-1.8c1-1.3,2.2-2.5,3.5-3.6c0.7-0.5,1.4-1,2.1-1.4c0.4-0.2,0.8-0.3,1.3-0.3c0.4,0,0.9,0,1.3,0.1
								c0.4,0.1,0.8,0.2,1.2,0.4c0.2,0.1,0.4,0.3,0.5,0.4c0.1,0.2,0.2,0.4,0.2,0.7c0,0.2-0.1,0.5-0.2,0.7l-0.3,0.6
								c-0.2,0.4-0.4,0.7-0.6,1.1c-0.9,1.4-1.8,2.8-2.8,4.1l-3,4c-1,1.3-2,2.7-2.9,4.1l-2.6,4.2c-1.8,2.8-3.1,5.8-4.7,8.8
								c-0.4,0.7-0.8,1.5-1.2,2.2l-0.3,0.5l-0.4,0.7l-1,0.8c-1.3,1.1-2.6,2.1-3.9,3.2c-0.7,0.5-1.3,1-2,1.5c-0.4,0.3-0.7,0.5-1,0.7
								l-1,0.7c-0.7,0.5-1.4,0.9-2.1,1.4c-0.4,0.2-0.7,0.4-1.1,0.6c-0.4,0.2-0.8,0.4-1.1,0.6l-0.2-0.4c0.7-0.4,1.4-0.9,2-1.4l2-1.5
								c0.7-0.5,1.3-1,2-1.5s1.3-1,1.9-1.5c1.3-1,2.6-2.1,3.8-3.2l0.9-0.8c1.7,1.5-1.2-0.7-0.1,0.1l0,0l0-0.1l0.1-0.1l0.2-0.3
								l0.3-0.5c0.4-0.7,0.8-1.4,1.2-2.1c0.8-1.4,1.6-2.9,2.4-4.4s1.7-2.9,2.6-4.3l1.4-2.1c0.5-0.7,0.9-1.4,1.4-2.1c1-1.4,2-2.7,3-4
								c2.1-2.6,4-5.3,5.8-8.1c0.2-0.4,0.4-0.7,0.6-1.1c0.2-0.3,0.4-0.7,0.4-1.1c0-0.4-0.3-0.7-0.6-0.8c-0.4-0.2-0.7-0.3-1.1-0.4
								c-0.4-0.1-0.8-0.1-1.2,0c-0.4,0-0.8,0.1-1.1,0.3c-0.7,0.4-1.4,0.9-2,1.4c-1.2,1.1-2.4,2.3-3.4,3.6c-1.1,1.3-2.2,2.5-3.3,3.7
								s-2.3,2.4-3.3,3.7l-3.2,3.8c-2.1,2.6-4.3,5.1-6.6,7.5c-1.2,1.2-2.4,2.3-3.7,3.4c-0.3,0.2-0.7,0.5-1,0.8s-0.7,0.5-1,0.7
								l-0.3,0.2l-0.1,0c0,0-0.2,0.1-0.1,0.1l0,0l-0.2,0l-0.6,0.1l-1.2,0.2c-3.3,0.4-6.6,0.7-10,0.8s-6.7,0.1-10,0.2l-1.2,0l-0.3,0
								h-0.1h0l-0.1,0c-0.2,0-0.4,0-0.6,0.1c-0.8,0.1-1.6,0.2-2.4,0.4c-1.6,0.3-3.1,0.8-4.6,1.4c-3,1.1-5.7,2.8-7.9,5
								c-0.1,0.1-0.3,0.3-0.4,0.4l0,0.1c0.1-0.1,0,0,0,0l0,0l-0.1,0.1l-0.2,0.2l-0.8,1c-0.5,0.7-1,1.3-1.4,2
								c-0.9,1.3-1.8,2.7-2.6,4.1c-1.5,2.9-3,5.9-4.7,8.8L82.1,146.8z"/>
							<path id="Path_70" class="st1" d="M171.5,118.1c0-0.1,0-0.1,0-0.2c0,0-0.1,0-0.1-0.1c0,0,0,0,0,0c0,0,0,0,0.1,0
								c0.1,0,0.1,0,0.2,0c0.1,0,0.2-0.1,0.4-0.1c0.2-0.1,0.5-0.2,0.7-0.3c0.5-0.2,0.9-0.4,1.4-0.6l2.8-1.2l5.6-2.5
								c3.7-1.7,7.5-3.4,11.2-5.1l5.6-2.5c1.9-0.8,3.8-1.5,5.8-2.1c0.5-0.1,1-0.3,1.5-0.3c0.5-0.1,1.1,0,1.6,0.2
								c0.5,0.3,0.8,0.7,1,1.2c0.2,0.5,0.2,1,0.1,1.6c0,0.1-0.1,0.3-0.1,0.4c-0.1,0.1-0.2,0.2-0.3,0.3c-0.2,0.2-0.4,0.3-0.6,0.5
								c-0.4,0.3-0.8,0.6-1.2,0.9c-0.8,0.6-1.7,1.1-2.6,1.7c-1.7,1.1-3.5,2.2-5.3,3.2l-0.7,0.4c-0.2,0.1-0.4,0.3-0.6,0.4l-1.3,0.8
								l-2.6,1.6l-5.3,3.1l-1.3,0.8c-0.4,0.3-0.9,0.5-1.3,0.8l-2.6,1.6c-3.5,2.1-7.1,4.2-10.7,6.2c-1.8,1-3.6,2-5.4,3
								c-0.9,0.5-1.8,1-2.7,1.5s-1.8,1-2.7,1.4l-0.2-0.4c1.8-1,3.5-2,5.3-3.1l5.3-3.1c3.6-2.1,7.1-4.1,10.7-6.1l2.7-1.5l2.7-1.5
								c1.8-1,3.6-2,5.4-3c1.8-1,3.6-2,5.3-3.1c1.8-1.1,3.5-2.1,5.3-3.2c0.9-0.5,1.7-1.1,2.6-1.7c0.4-0.3,0.8-0.6,1.2-0.9
								c0.2-0.2,0.4-0.3,0.6-0.5c0.1-0.1,0.2-0.2,0.2-0.3c0-0.1,0.1-0.2,0.1-0.3c0.1-0.5,0-1-0.1-1.5c-0.1-0.5-0.4-0.9-0.9-1.1
								c-0.4-0.2-1-0.3-1.4-0.2c-0.5,0.1-1,0.2-1.5,0.3c-2,0.6-3.9,1.3-5.7,2.2l-5.5,2.7c-3.7,1.8-7.4,3.5-11.2,5.2
								c-1.9,0.9-3.8,1.7-5.6,2.5c-0.9,0.4-1.9,0.8-2.8,1.2c-0.5,0.2-1,0.4-1.4,0.6c-0.2,0.1-0.5,0.2-0.7,0.3
								c-0.1,0-0.2,0.1-0.4,0.1c-0.1,0-0.1,0-0.2,0.1c0,0-0.1,0-0.1,0c0,0-0.1,0-0.1,0c-0.1,0-0.1,0-0.1-0.1c-0.1-0.1-0.1-0.2,0-0.2
								L171.5,118.1z"/>
							<path id="Path_71" class="st1" d="M180.6,123.4c5.6-0.9,11.2-2,16.9-2.8c2.8-0.4,5.7-0.7,8.5-0.8c1.4,0,2.9,0,4.3,0.1
								c0.7,0.1,1.4,0.2,2.1,0.4c0.3,0.1,0.7,0.3,1,0.5c0.3,0.2,0.5,0.5,0.7,0.8c0.3,0.7,0.5,1.4,0.4,2.1c0,0.2,0,0.4-0.1,0.5l0,0.1
								l0,0.1c0,0,0,0.1-0.1,0.1c0,0,0,0,0,0c-0.1,0-0.2,0.1-0.3,0.1c-0.3,0.1-0.7,0.2-1,0.2c-1.4,0.3-2.8,0.5-4.2,0.8l-8.4,1.5
								c-2.8,0.5-5.6,1-8.4,1.7c-0.7,0.2-1.4,0.3-2.1,0.5s-1.4,0.4-2,0.6c-1.4,0.4-2.7,0.8-4.1,1.1c-2.8,0.7-5.5,1.5-8.2,2.3
								c-0.7,0.2-1.3,0.4-2,0.7s-1.3,0.5-2,0.7c-1.4,0.5-2.7,0.9-4.1,1.2c-2.8,0.8-5.5,1.4-8.2,2.3l-0.5,0.2l-0.2,0.1c0.1,0,0,0,0,0
								l0,0l-0.1,0l-0.1,0.1c-0.3,0.2-0.7,0.3-1,0.4c-0.7,0.3-1.3,0.5-2,0.8c-0.3,0.1-0.6,0.3-0.9,0.4l0,0c0,0-0.1,0-0.1,0l-0.1,0
								l-0.1,0c-0.1,0-0.2,0.1-0.3,0.1c-0.2,0-0.4,0.1-0.5,0.1c-0.7,0.1-1.4,0.2-2,0.4l-0.1,0c-0.1,0,0,0,0,0l-0.1,0.1l-0.2,0.1
								l-0.5,0.2c-0.3,0.2-0.7,0.3-1,0.4c-0.7,0.3-1.3,0.5-2,0.8c-1.4,0.5-2.8,0.8-4.2,1.1c-0.7,0.1-1.4,0.2-2.1,0.3
								c-0.7,0-1.4,0-2.2,0.1c-1.4,0.1-2.9,0.2-4.3,0.2c-2.8,0.1-5.6,0.3-8.4,0.7c-1.4,0.2-2.7,0.5-4.1,0.9c-1.3,0.4-2.6,0.8-4,1.2
								l-0.2-0.4c1.1-1,2.4-1.7,3.8-2.1c1.4-0.4,2.8-0.8,4.3-0.9c2.9-0.3,5.7-0.4,8.6-0.3c1.4,0,2.8,0,4.3-0.1
								c0.7-0.1,1.4-0.2,2.1-0.3s1.4-0.2,2.1-0.3c1.4-0.2,2.7-0.6,4.1-1c0.7-0.2,1.3-0.5,2-0.7c0.3-0.1,0.6-0.3,1-0.4l0.5-0.2
								l0.2-0.1l0.1-0.1c0,0,0.1,0,0.1,0l0.1,0c0.7-0.2,1.4-0.3,2.1-0.4c0.2,0,0.3-0.1,0.5-0.1l0.2-0.1l0.1,0l0.1,0c0,0-0.1,0,0,0
								l0,0c0.3-0.2,0.7-0.3,1-0.4c0.7-0.3,1.3-0.5,2-0.8c0.3-0.1,0.6-0.3,1-0.4l0.3-0.1l0.3-0.1l0.5-0.2c2.7-0.9,5.5-1.5,8.3-2.3
								c1.4-0.4,2.7-0.7,4.1-1.2c1.3-0.5,2.7-1,4.1-1.4c2.7-0.8,5.5-1.5,8.3-2.2c1.4-0.4,2.8-0.7,4.1-1.1c0.7-0.2,1.4-0.4,2.1-0.6
								s1.4-0.3,2.1-0.5c2.8-0.6,5.6-1.1,8.4-1.6s5.6-0.9,8.4-1.4c1.4-0.2,2.8-0.5,4.2-0.7c0.3-0.1,0.7-0.1,1-0.2
								c0.1,0,0.2,0,0.2-0.1l0,0c0,0,0,0,0,0l0-0.1l0-0.1c0-0.2,0.1-0.3,0.1-0.5c0-0.7-0.1-1.4-0.4-2c-0.3-0.6-0.9-1.1-1.6-1.2
								c-0.7-0.2-1.4-0.3-2.1-0.4c-1.4-0.1-2.8-0.1-4.2,0c-2.8,0.2-5.7,0.6-8.5,1s-5.6,0.9-8.4,1.3s-5.6,0.9-8.4,1.3L180.6,123.4z"
								/>
							<path id="Path_72" class="st1" d="M137.9,117.1c-2.7-0.1-5.5-0.3-8.2-0.2c-1.4,0-2.7,0.1-4.1,0.2c-0.7,0.1-1.4,0.2-2,0.2
								l-1,0.1l-1,0.2c-0.7,0.1-1.4,0.2-2,0.4l-2,0.4l-2,0.5c-0.7,0.2-1.3,0.4-2,0.6c-2.6,0.8-5.2,1.7-7.7,2.9l-0.2-0.4
								c2.5-1.3,5-2.3,7.7-3.1c2.6-0.8,5.3-1.5,8.1-2l1-0.2l1-0.1c0.7-0.1,1.4-0.2,2.1-0.3c1.4-0.1,2.8-0.3,4.1-0.3
								c0.7,0,1.4-0.1,2.1,0l2.1,0.1c0.7,0,1.4,0.1,2.1,0.2s1.4,0.2,2.1,0.3L137.9,117.1z"/>
							<path id="Path_73" class="st1" d="M148.3,118.7c1.2,0.2,2.4,0.5,3.6,0.6c0.6,0.1,1.2,0.1,1.8,0.2c0.3,0,0.6,0,0.9,0
								c0.3,0,0.5-0.1,0.8-0.2l0.2,0.3c-0.3,0.2-0.6,0.3-1,0.3c-0.3,0-0.6,0-0.9,0c-0.6,0-1.2-0.1-1.8-0.2c-1.2-0.2-2.4-0.4-3.6-0.6
								L148.3,118.7z"/>
							<path id="Path_74" class="st1" d="M162.4,92.8c-0.6,0.5-1.2,1.1-1.7,1.7c-0.5,0.6-1,1.2-1.4,1.9c-0.2,0.3-0.4,0.7-0.5,1.1
								c-0.1,0.4-0.1,0.8,0,1.1c0.1,0.4,0.4,0.7,0.8,0.8c0.4,0.2,0.7,0.3,1.1,0.4l0,0.1c-0.4-0.1-0.8-0.2-1.2-0.3
								c-0.4-0.2-0.7-0.5-0.9-0.9c-0.1-0.4-0.2-0.8,0-1.3c0.1-0.4,0.3-0.8,0.5-1.2c0.4-0.7,0.9-1.4,1.4-2c0.5-0.6,1.1-1.2,1.7-1.8
								L162.4,92.8z"/>
							<path id="Path_75" class="st1" d="M187.3,92.9c0.1,0.1,0.1,0.1,0.1,0.2c0,0,0,0,0,0l0,0l0,0l0,0l0,0l-0.1,0.1l-0.1,0.1
								l-0.2,0.2c-0.2,0.1-0.3,0.2-0.5,0.4c-0.3,0.3-0.6,0.5-0.9,0.8c-0.6,0.5-1,1.2-1.4,1.9c-0.4,0.7-0.5,1.5-0.4,2.2
								c0.1,0.8,0.5,1.5,1.1,2l-0.1,0.1c-0.6-0.6-1-1.3-1.2-2.1c-0.1-0.8,0-1.6,0.3-2.4c0.4-0.7,0.8-1.4,1.4-2
								c0.3-0.3,0.6-0.6,0.9-0.8c0.1-0.1,0.3-0.3,0.5-0.4l0.2-0.2l0.1-0.1l0.1,0l0,0c0,0,0,0,0,0c0,0,0,0,0,0l0,0c0,0,0,0,0,0
								c0,0.1,0,0.2,0.1,0.2L187.3,92.9z"/>
							<path id="Path_76" class="st1" d="M208,103.9c-0.9,0.3-1.7,0.6-2.6,1c-0.8,0.4-1.7,0.8-2.4,1.3c-0.4,0.2-0.7,0.5-1.1,0.8
								c-0.3,0.3-0.6,0.7-0.7,1.1c-0.1,0.4,0,0.9,0.3,1.2l0.2,0.2c0.1,0.1,0.2,0.1,0.3,0.2c0.2,0.2,0.4,0.2,0.5,0.4c0,0.1,0,0,0,0
								l0,0l0,0l0,0l0,0l0,0l-0.1,0l-0.1-0.1c-0.1-0.1-0.2-0.1-0.3-0.2c-0.1-0.1-0.2-0.1-0.3-0.2l-0.2-0.3l-0.2-0.3
								c-0.1-0.1-0.1-0.2-0.1-0.3c-0.1-0.2-0.1-0.5,0-0.7c0.1-0.5,0.4-0.9,0.7-1.2c0.3-0.3,0.7-0.6,1.1-0.9c0.8-0.5,1.6-1,2.4-1.4
								c0.8-0.4,1.7-0.8,2.6-1.1L208,103.9z"/>
							<path id="Path_77" class="st1" d="M213.4,121.4c-1,0-2,0.1-2.9,0.2c-1,0.1-1.9,0.3-2.9,0.6c-0.9,0.2-1.8,0.7-2.5,1.4
								c-0.3,0.4-0.5,0.8-0.5,1.3c0,0.5,0.1,1,0.3,1.4l-0.1,0c-0.2-0.5-0.3-0.9-0.4-1.5c0-0.5,0.2-1,0.5-1.4
								c0.7-0.7,1.6-1.3,2.6-1.5c0.9-0.3,1.9-0.5,2.9-0.7c1-0.1,2-0.2,3-0.3L213.4,121.4z"/>
						</g>
					</g>
				</g>
			</g>
			<g id="Group_35" transform="translate(907.902 135.293)">
				<circle id="Ellipse_1" class="st2" cx="16.3" cy="16.3" r="16.3"/>
				<g id="Group_34" transform="translate(0 0.062)">
					<g>
						<defs>
							<rect id="SVGID_00000163764909401602973280000009509852767561780402_" x="0" y="0" width="31.8" height="31.6"/>
						</defs>
						<clipPath id="SVGID_00000120529643906511937500000001415971857641772984_">
							<use xlink:href="#SVGID_00000163764909401602973280000009509852767561780402_"  style="overflow:visible;"/>
						</clipPath>
						<g id="Group_33" style="clip-path:url(#SVGID_00000120529643906511937500000001415971857641772984_);">
							<path id="Path_78" class="st1" d="M26.3,11.1c0.5,1.4-0.7,2.3-2.2,1.7c-3.1-1.3-4.5-6.9-1.4-8.4C27.4,2.3,34,12,31.1,19.2
								c-0.3,0.9-0.8,1.6-1.4,2.3c0.1-1.5-0.1-3-0.5-4.5c2.6-4.5-1-9.7-3.2-9c-1.1,0.4-0.9,2.1,0,2.6l0,0
								C26.1,10.8,26.2,11,26.3,11.1"/>
							<path id="Path_79" class="st1" d="M29.2,25.2c-0.7,0.9-1.4,1.8-2.2,2.6c0.5-0.4,0.9-0.9,1.2-1.4c0.7-0.7,1.2-1.4,1.7-2.2
								C29.7,24.5,29.4,24.9,29.2,25.2"/>
							<path id="Path_80" class="st1" d="M29.7,21.6C22.3,29.3,9.4,18.7,9.4,7.8c0-4.6,2.6-7.7,6.4-7.8c0.6,0,1.3,0,1.9,0.1
								c0.9,0.1,1.8,0.3,2.7,0.5c0.8,0.2,1.6,0.5,2.3,0.9l0.3,0.2c-6.9-3-10.4,3.2-7.7,9.9c2.9,7.1,10.4,10.2,13.7,5.5
								C29.6,18.6,29.7,20.1,29.7,21.6"/>
							<path id="Path_81" class="st1" d="M27,27.8c-1,0.9-2.2,1.8-3.4,2.4l-0.4,0.2C10.4,36.1-1.7,18.9,1.6,9.2
								C1.8,8.7,2,8.1,2.3,7.6l0.5-0.7C3.4,6,4.2,5.1,5,4.3c0.7-0.7,1.4-1.2,2.2-1.8c-8.4,6.2,0,24.5,12,26.4
								c3.2,0.6,6.5-0.3,8.9-2.6C27.8,26.9,27.4,27.4,27,27.8"/>
							<path id="Path_82" class="st1" d="M9.2,30.6c-0.7-0.3-1.4-0.7-2-1.1c-1.7-1.1-3.1-2.5-4.3-4.1c-0.4-0.5-0.7-1-1-1.6
								c-0.6-1.1-1.1-2.2-1.4-3.3c-0.2-0.6-0.3-1.2-0.4-1.8c0-0.4-0.1-0.9-0.2-1.2c0.8,6.4,5.1,11.8,11.2,13.9
								C10.6,31.2,9.8,30.9,9.2,30.6"/>
						</g>
					</g>
				</g>
			</g>
		</g>
	</g>
</g>
</svg>
