<svg xmlns="http://www.w3.org/2000/svg" xmlns:xlink="http://www.w3.org/1999/xlink" width="301" height="177.372" viewBox="0 0 301 177.372">
  <defs>
    <clipPath id="clip-path">
      <rect id="Rectangle_42" data-name="Rectangle 42" width="214.556" height="147.372" fill="#fff"/>
    </clipPath>
    <clipPath id="clip-path-2">
      <rect id="Rectangle_43" data-name="Rectangle 43" width="31.781" height="31.555" fill="#fff"/>
    </clipPath>
  </defs>
  <g id="Group_73" data-name="Group 73" transform="translate(-853 -39)">
    <g id="Group_38" data-name="Group 38" transform="translate(106.944 -15)">
      <g id="Group_64" data-name="Group 64">
        <g id="Group_36" data-name="Group 36" transform="translate(788.5 84)">
          <g id="Group_32" data-name="Group 32">
            <g id="Group_31" data-name="Group 31" clip-path="url(#clip-path)">
              <path id="Path_62" data-name="Path 62" d="M81.833,8.8a15.469,15.469,0,0,0-1.345,12.381,20.392,20.392,0,0,0,1.68,3.866,17.149,17.149,0,0,0,2.7,3.308A43.93,43.93,0,0,0,94.5,35.3a1.765,1.765,0,0,1,.856.734l.259.447a18.1,18.1,0,0,1-3.052,10.6,18.428,18.428,0,0,1-4.053,3.836c-1.163,1-2.746,2.106-2.717,3.709.176,2.682,3.122,4.26,3.8,6.8,1.171,4.577-2.773,9.059-5.93,11.868,0,0-.01-.322-.011-.321a6.086,6.086,0,0,1,2.56,4.311,4.147,4.147,0,0,1-1.2,2.864c-.858.993-2.176,1.481-2.808,2.643-1.28,2.28.033,5,1.2,7.088,1.919,3.752,1.285,8.968-2.18,11.644-7.708,5.814-23.154,1.364-31.663-1.125a156,156,0,0,1-22.5-8.4C19.788,88.442,12.7,84,7.445,77.729A39.385,39.385,0,0,1,0,63.427l.378-.168A61.136,61.136,0,0,0,9.6,75.776c7.316,7.293,16.754,12.118,26.172,16.211,9.575,4,19.55,7.84,29.78,9.682,6.676,1.186,17.68,1.56,17.691-7.73.08-1.965-.8-3.665-1.615-5.431-1.14-2.579-1.242-5.947,1.432-7.6,3.672-2.182,3.253-5.27.151-7.766,2.546-2.409,5.079-5.45,5.666-8.968a5.231,5.231,0,0,0-1.509-4.542c-2.023-2.1-4.211-5.131-1.827-7.871a36.992,36.992,0,0,1,4.056-3.736c3.243-2.907,4.137-7.505,5.086-11.6l.259.447a1.814,1.814,0,0,1-1.116-.272l-1-.5a29.235,29.235,0,0,1-11.853-10.3,14.016,14.016,0,0,1-2.49-8.766A15.5,15.5,0,0,1,81.5,8.555Z" transform="translate(0 -5.019)" fill="#fff"/>
              <path id="Path_63" data-name="Path 63" d="M4.013,247.808a39.338,39.338,0,0,1,19.328-21.779,34.4,34.4,0,0,1,14.566-3.366,39.362,39.362,0,0,1,14.456,2.8l-.115.4A55.9,55.9,0,0,0,38,224.926c-12,.819-22.277,7.767-29.51,17.133a56.206,56.206,0,0,0-4.1,5.911Z" transform="translate(-2.354 -130.631)" fill="#fff"/>
              <path id="Path_64" data-name="Path 64" d="M186.181,98.658s7.053-7.628,9.141-5.217-1.749,3.059-1.749,3.059-6.923,1.392-7.391,2.158" transform="translate(-109.228 -54.543)" fill="#fff"/>
              <path id="Path_65" data-name="Path 65" d="M183.283,169.171a.805.805,0,0,0,1.2-.007c.739-.85,1.506-2.491-1.05-4.365-3.735-2.739-12.575-1.619-12.575-1.619s8.7,2.033,12.428,5.991" transform="translate(-100.236 -95.601)" fill="#fff"/>
              <path id="Path_66" data-name="Path 66" d="M172.177,137.379a70.074,70.074,0,0,0-10.54,4.745c-2.065,1.245-9.271,5.854-9.11,5.852,9.213.747,17.334,4.607,18.278,5.552a4.723,4.723,0,0,0,3.531,1.3l.652-.48.251-.7s.591-2.615-1.162-4.15c-.806-.706-.95-1.092-1.068-1.11l3.5-3.808,1.591-3.741c1.1-3.748-2.354-4.8-5.92-3.463m-3.474,9.849c-.665-.154-5.24-1.494-5.24-1.494s3.735-4.731,6.474-1.867.6,3.787-1.235,3.362" transform="translate(-89.482 -80.271)" fill="#fff"/>
              <path id="Path_67" data-name="Path 67" d="M195.551,45.719a10.847,10.847,0,0,0,2.988.872c.622-.125-1,.373-1.992.373s6.972,1.494,7.595,1.121a8.7,8.7,0,0,1-6.35.623c-3.486-1.245-2.241-2.988-2.241-2.988" transform="translate(-114.598 -26.822)" fill="#fff"/>
              <path id="Path_68" data-name="Path 68" d="M351.78,255.045l6.74-2.921,3.367-1.465,1.674-.748c.275-.129.557-.253.827-.386a4.131,4.131,0,0,0,.756-.438c.97-.705,1.892-1.52,2.811-2.321s1.822-1.63,2.723-2.458c1.793-1.659,3.6-3.333,5.327-5.039,1.709-1.738,3.319-3.586,4.966-5.4s3.291-3.635,5.036-5.364a34.912,34.912,0,0,1,2.737-2.473,14.532,14.532,0,0,1,1.517-1.065,5.339,5.339,0,0,1,1.729-.706,6.226,6.226,0,0,1,1.86-.135,2.365,2.365,0,0,1,1.672.842,2.154,2.154,0,0,1,.393.876c.015.079.029.158.036.239a.513.513,0,0,1-.023.286,3.959,3.959,0,0,1-.257.4c-.357.5-.73.988-1.1,1.474Q392.31,231.15,390,234c-1.586,1.872-2.947,3.893-4.429,5.853-.736.98-1.454,1.971-2.229,2.929-.824.919-1.532,1.9-2.265,2.883-1.449,1.972-2.84,3.989-4.271,5.978-.706,1-1.443,1.981-2.182,2.964l-.563.735-.3.369-.163.191a1.237,1.237,0,0,1-.258.226c-.548.351-1.054.656-1.583.98l-6.3,3.793c-2.105,1.254-4.232,2.47-6.356,3.694-1.06.614-2.134,1.2-3.209,1.8l-1.618.878-.82.423a7.254,7.254,0,0,1-.886.4l-.1-.4c.211-.092.509-.266.761-.412l.786-.467,1.569-.949,3.128-1.923,6.257-3.847,6.262-3.835c.513-.319,1.053-.651,1.535-.964a.356.356,0,0,0,.086-.074l.138-.155.286-.342.569-.711c.758-.955,1.5-1.933,2.266-2.885,1.519-1.921,3.064-3.824,4.61-5.729.766-.95,1.568-1.9,2.392-2.8.77-.942,1.507-1.923,2.236-2.9,2.786-4.029,6.052-7.717,9.032-11.591.373-.484.747-.969,1.1-1.465a3.929,3.929,0,0,0,.239-.371c.018.005.006-.1,0-.165a2.112,2.112,0,0,0-.032-.215,1.928,1.928,0,0,0-.351-.786,2.144,2.144,0,0,0-1.52-.759,5.54,5.54,0,0,0-1.788.14,5.122,5.122,0,0,0-1.644.7,14.3,14.3,0,0,0-1.471,1.066,34.589,34.589,0,0,0-2.675,2.491c-3.421,3.494-6.45,7.349-9.859,10.9-1.755,1.734-3.549,3.388-5.352,5.054q-1.355,1.242-2.735,2.462c-.928.806-1.844,1.616-2.857,2.351a4.634,4.634,0,0,1-.83.48c-.279.137-.559.26-.838.39l-1.681.748-3.373,1.462-6.78,2.837Z" transform="translate(-206.381 -131.476)" fill="#fff"/>
              <path id="Path_69" data-name="Path 69" d="M198.616,278.071c1.108-3.147,2.168-6.279,3.486-9.389a32.619,32.619,0,0,1,2.384-4.529c.447-.727.936-1.42,1.419-2.108l.732-1.023.184-.253.092-.127.023-.032c.026-.034-.026.031.065-.084l.054-.064c.147-.169.287-.344.44-.507a21.581,21.581,0,0,1,8.81-5.55,28.077,28.077,0,0,1,5.013-1.252q1.277-.2,2.567-.276c.214-.016.43-.023.645-.032l.161-.007a.635.635,0,0,1,.094,0h.039l.079,0,.312.009,1.249.04a198.591,198.591,0,0,0,19.895.136c.414-.026.826-.071,1.238-.111l.619-.061.155-.015.038,0c.047-.019-.135.049-.066.023l.065-.042.26-.168c.343-.227.7-.44,1.034-.678s.67-.483,1-.731a41.205,41.205,0,0,0,3.693-3.307c1.179-1.164,2.26-2.423,3.334-3.686s2.11-2.561,3.148-3.86,2.077-2.6,3.159-3.866,2.221-2.479,3.333-3.717l1.681-1.843c.566-.612,1.128-1.217,1.673-1.84a25.924,25.924,0,0,1,3.508-3.6,15.292,15.292,0,0,1,2.12-1.38,2.921,2.921,0,0,1,1.267-.347,5.164,5.164,0,0,1,1.285.069,3.844,3.844,0,0,1,1.222.424,1.805,1.805,0,0,1,.514.433,1.088,1.088,0,0,1,.238.652,1.417,1.417,0,0,1-.164.656l-.291.557c-.188.374-.419.723-.624,1.087-.869,1.424-1.845,2.775-2.836,4.11l-2.985,4c-1,1.328-1.969,2.677-2.874,4.063l-2.634,4.232c-1.763,2.8-3.135,5.813-4.683,8.775-.387.741-.787,1.476-1.212,2.2l-.319.541-.394.651-.965.831c-1.265,1.084-2.561,2.13-3.871,3.167-.662.512-1.323,1.015-2.014,1.509-.35.26-.694.462-1.037.7l-1.034.7c-.7.456-1.388.921-2.105,1.353-.358.217-.716.433-1.082.64a8.38,8.38,0,0,1-1.15.569l-.165-.379a23.148,23.148,0,0,0,2.009-1.4l1.981-1.5c.658-.493,1.345-1.009,2-1.483s1.3-1.006,1.942-1.525c1.295-1.03,2.563-2.1,3.844-3.152l.937-.782c1.728,1.482-1.154-.711-.052.088l.021-.033.04-.066.081-.131.163-.263.322-.528c.425-.706.835-1.423,1.249-2.139.818-1.438,1.6-2.9,2.413-4.361s1.681-2.89,2.627-4.269l1.4-2.059c.472-.675.9-1.408,1.383-2.085.952-1.372,1.984-2.678,2.994-4a88.476,88.476,0,0,0,5.838-8.065c.2-.362.416-.716.594-1.089a2.616,2.616,0,0,0,.4-1.1,1.065,1.065,0,0,0-.635-.847,3.339,3.339,0,0,0-1.133-.353,4.84,4.84,0,0,0-1.2-.022,2.551,2.551,0,0,0-1.106.342,15,15,0,0,0-2.016,1.393,29.08,29.08,0,0,0-3.372,3.6c-1.091,1.27-2.218,2.481-3.339,3.709s-2.263,2.436-3.336,3.7l-3.2,3.814c-2.126,2.554-4.261,5.117-6.612,7.487a41.475,41.475,0,0,1-3.715,3.358c-.336.25-.667.505-1,.763s-.684.482-1.026.725l-.258.179-.064.045c.048-.011-.158.069-.137.051l-.039.005-.155.021-.62.083-1.24.159c-3.307.439-6.643.724-9.979.836s-6.665.137-9.982.214l-1.244.032-.311.008-.078,0H224.8l-.15.015c-.2.02-.4.038-.6.064q-1.194.143-2.372.394a30.1,30.1,0,0,0-4.6,1.36,21.793,21.793,0,0,0-7.9,5c-.137.136-.26.282-.391.422l-.048.053c.075-.1.007-.009.018-.022l-.024.031-.1.123-.19.245-.752.981c-.5.653-.973,1.314-1.447,1.971a40.115,40.115,0,0,0-2.554,4.126c-1.535,2.9-2.976,5.928-4.707,8.794Z" transform="translate(-116.523 -131.288)" fill="#fff"/>
              <path id="Path_70" data-name="Path 70" d="M400.909,264.082a.18.18,0,0,0-.04-.194.182.182,0,0,0-.092-.053c-.03,0-.011,0-.009,0a.612.612,0,0,0,.069-.014c.053-.014.112-.031.17-.05.117-.038.235-.081.353-.125.237-.089.474-.185.71-.282.472-.195.943-.4,1.413-.6l2.815-1.246,5.615-2.534q5.608-2.553,11.231-5.079l5.617-2.545a51.261,51.261,0,0,1,5.8-2.123,11.273,11.273,0,0,1,1.515-.343,2.549,2.549,0,0,1,1.553.225,2.071,2.071,0,0,1,.954,1.241,3.7,3.7,0,0,1,.118,1.561,1.434,1.434,0,0,1-.105.4,2.076,2.076,0,0,1-.279.3c-.189.18-.39.342-.592.5-.406.319-.826.617-1.249.91-.848.583-1.714,1.138-2.581,1.69-1.737,1.1-3.5,2.154-5.257,3.221l-.653.405c-.212.134-.424.287-.649.418l-1.323.793-2.646,1.582-5.306,3.142-1.336.774c-.443.258-.914.5-1.335.76l-2.644,1.583c-3.532,2.1-7.093,4.152-10.656,6.2-1.781,1.024-3.576,2.026-5.367,3.034-.894.506-1.8,1-2.7,1.49s-1.795.987-2.744,1.441l-.174-.375c1.776-.976,3.548-2.048,5.322-3.074l5.324-3.1c3.558-2.055,7.109-4.123,10.688-6.143l2.691-1.5,2.723-1.451q2.708-1.467,5.391-2.987c1.785-1.018,3.587-2,5.311-3.123,1.761-1.061,3.529-2.106,5.268-3.2.87-.544,1.733-1.1,2.573-1.69.42-.294.836-.594,1.236-.912.2-.16.4-.322.579-.5a2.5,2.5,0,0,0,.247-.26,1.314,1.314,0,0,0,.087-.347,3.532,3.532,0,0,0-.12-1.488,1.9,1.9,0,0,0-.879-1.139,2.378,2.378,0,0,0-1.447-.2,11.052,11.052,0,0,0-1.485.347,48.586,48.586,0,0,0-5.742,2.185l-5.545,2.691q-5.548,2.691-11.169,5.226-2.806,1.278-5.638,2.5c-.944.407-1.889.814-2.844,1.2-.477.193-.956.384-1.438.568-.241.092-.484.181-.73.267-.123.043-.247.084-.376.122-.064.019-.13.037-.2.053a.95.95,0,0,1-.121.02.352.352,0,0,1-.1,0,.247.247,0,0,1-.136-.071.226.226,0,0,1-.045-.239Z" transform="translate(-229.452 -145.999)" fill="#fff"/>
              <path id="Path_71" data-name="Path 71" d="M347.787,293.506c5.611-.923,11.213-2.006,16.868-2.76a76.487,76.487,0,0,1,8.526-.782,35.11,35.11,0,0,1,4.287.117,10.449,10.449,0,0,1,2.113.41,3.7,3.7,0,0,1,.985.465,2.083,2.083,0,0,1,.7.845,4.572,4.572,0,0,1,.438,2.113,3.21,3.21,0,0,1-.065.545l-.036.134-.018.067c.009,0-.044.08-.053.072a.293.293,0,0,1-.043.024,1.886,1.886,0,0,1-.269.088c-.349.092-.7.164-1.047.236-1.4.281-2.8.532-4.2.787l-8.408,1.52c-2.8.518-5.6,1.047-8.371,1.67-.692.157-1.383.322-2.067.5s-1.363.4-2.048.589c-1.371.394-2.747.768-4.123,1.137-2.752.739-5.5,1.465-8.2,2.336-.675.218-1.347.443-2.014.682s-1.323.493-2.011.728c-1.362.465-2.739.852-4.115,1.229-2.752.753-5.523,1.421-8.2,2.312l-.5.175-.249.088c.074-.032,0,0,.011,0l-.031.015-.062.031-.124.06c-.331.158-.667.3-1,.437-.671.27-1.342.508-1.986.775-.323.133-.639.274-.946.428l-.029.014a.791.791,0,0,1-.086.036l-.068.021-.136.043c-.091.025-.182.053-.274.075-.182.048-.364.085-.544.121a17.646,17.646,0,0,0-2.041.424l-.059.019c-.052.019.047-.022,0,0l-.121.06-.243.12-.489.233c-.327.153-.656.3-.989.441-.665.283-1.339.544-2.023.78a27.139,27.139,0,0,1-4.205,1.084,20.644,20.644,0,0,1-2.148.251c-.72.045-1.439.041-2.155.081-1.429.092-2.858.157-4.282.224a74.9,74.9,0,0,0-8.435.749,30.753,30.753,0,0,0-4.054.925c-1.336.369-2.628.829-4.032,1.2l-.2-.362a10.97,10.97,0,0,1,3.818-2.142,23.777,23.777,0,0,1,4.273-.948,63.629,63.629,0,0,1,8.612-.265c1.423.011,2.843,0,4.257-.072.706-.052,1.407-.16,2.1-.268s1.4-.183,2.089-.293a26.189,26.189,0,0,0,4.069-1.011c.665-.222,1.322-.47,1.97-.739.325-.134.646-.275.965-.421l.477-.222.237-.115.119-.057a.811.811,0,0,1,.121-.048l.068-.021a17.97,17.97,0,0,1,2.141-.431c.169-.032.336-.065.5-.106l.242-.064.119-.036.059-.018c.036-.014-.069.03-.024.011l.031-.015c.331-.163.667-.309,1-.444.674-.272,1.349-.5,2-.76.326-.128.647-.262.959-.408l.275-.129.256-.088.511-.176c2.737-.888,5.515-1.533,8.263-2.264,1.373-.365,2.742-.739,4.08-1.185,1.327-.463,2.689-.958,4.053-1.37,2.732-.846,5.5-1.543,8.258-2.25,1.379-.353,2.756-.71,4.127-1.087.689-.183,1.363-.393,2.064-.569s1.391-.334,2.089-.485c2.792-.6,5.6-1.1,8.4-1.59s5.62-.944,8.429-1.41c1.4-.234,2.81-.464,4.207-.729.348-.067.7-.135,1.039-.221a1.839,1.839,0,0,0,.239-.074l.016-.008c.008-.02-.027.046-.015.02l.017-.061.035-.123a3.085,3.085,0,0,0,.067-.513,4.353,4.353,0,0,0-.418-2.03,2.362,2.362,0,0,0-1.585-1.223,9.5,9.5,0,0,0-2.08-.364,28.168,28.168,0,0,0-4.25.044c-2.83.225-5.653.563-8.47.951s-5.626.853-8.436,1.306-5.618.935-8.446,1.326Z" transform="translate(-167.148 -170.105)" fill="#fff"/>
              <path id="Path_72" data-name="Path 72" d="M287.856,281.982c-2.744-.095-5.467-.283-8.2-.161-1.367,0-2.727.139-4.09.237-.681.059-1.357.163-2.036.242l-1.017.127-1.011.173c-.672.122-1.35.216-2.018.362l-2.008.421-1.991.5c-.664.166-1.316.374-1.974.558a52.069,52.069,0,0,0-7.666,2.9l-.2-.364a48.873,48.873,0,0,1,7.675-3.133,57.423,57.423,0,0,1,8.054-1.968l1.022-.18,1.029-.135c.687-.084,1.371-.193,2.06-.256,1.38-.107,2.757-.254,4.143-.263.692-.013,1.384-.059,2.076-.026l2.075.081c.692.023,1.379.115,2.066.2s1.372.178,2.055.284Z" transform="translate(-149.984 -164.854)" fill="#fff"/>
              <path id="Path_73" data-name="Path 73" d="M358.685,287.121c1.18.242,2.372.453,3.566.612.6.078,1.2.143,1.793.173a8.5,8.5,0,0,0,.888,0,1.63,1.63,0,0,0,.764-.181l.231.269a1.832,1.832,0,0,1-.97.273,8.727,8.727,0,0,1-.929.007c-.613-.026-1.221-.087-1.825-.161-1.209-.152-2.406-.353-3.6-.588Z" transform="translate(-210.383 -168.447)" fill="#fff"/>
              <path id="Path_74" data-name="Path 74" d="M387.345,224.144a21.169,21.169,0,0,0-1.7,1.719,12.3,12.3,0,0,0-1.434,1.94,4.8,4.8,0,0,0-.481,1.09,1.878,1.878,0,0,0-.015,1.143,1.569,1.569,0,0,0,.773.828,4.079,4.079,0,0,0,1.139.369l-.017.107a4.208,4.208,0,0,1-1.19-.346,1.735,1.735,0,0,1-.879-.894,2.078,2.078,0,0,1-.028-1.264,5.027,5.027,0,0,1,.468-1.159,12.572,12.572,0,0,1,1.406-2.033,21.574,21.574,0,0,1,1.684-1.807Z" transform="translate(-224.946 -131.32)" fill="#fff"/>
              <path id="Path_75" data-name="Path 75" d="M447.777,224.8a.221.221,0,0,1,.081.236c-.016.046-.021.047-.021.047l-.006.009-.026.033-.025.025-.036.031-.062.05-.119.091-.233.181q-.231.181-.455.369c-.3.252-.585.515-.858.794a7.6,7.6,0,0,0-1.383,1.86,3.655,3.655,0,0,0-.407,2.233,3.939,3.939,0,0,0,1.072,2.034l-.057.054a4.057,4.057,0,0,1-1.175-2.06,3.86,3.86,0,0,1,.346-2.368,7.888,7.888,0,0,1,1.365-1.98c.271-.3.556-.577.853-.847.148-.134.3-.266.452-.394l.229-.191.112-.093.052-.045.02-.018s.007-.007,0,0a.087.087,0,0,0-.014.018l0,0a.2.2,0,0,0-.019.043.207.207,0,0,0,.081.227Z" transform="translate(-260.488 -131.882)" fill="#fff"/>
              <path id="Path_76" data-name="Path 76" d="M493.438,250.792a27.351,27.351,0,0,0-2.567.97,16.967,16.967,0,0,0-2.426,1.271,7.12,7.12,0,0,0-1.066.841,2.471,2.471,0,0,0-.707,1.109,1.386,1.386,0,0,0,.308,1.231l.229.25c.078.081.172.148.257.223.16.169.394.227.539.429-.041.069-.013.018-.022.033h0l0,0-.009-.006-.019-.012-.037-.023-.074-.046-.147-.093a2.027,2.027,0,0,1-.286-.2c-.09-.074-.188-.14-.272-.222l-.246-.253-.2-.292c-.052-.107-.1-.218-.144-.33a1.477,1.477,0,0,1-.023-.72,2.641,2.641,0,0,1,.719-1.217,7.321,7.321,0,0,1,1.075-.9,17.229,17.229,0,0,1,2.427-1.368,27.811,27.811,0,0,1,2.575-1.062Z" transform="translate(-285.405 -146.903)" fill="#fff"/>
              <path id="Path_77" data-name="Path 77" d="M503.7,293.183a25.531,25.531,0,0,0-2.925.178,16.442,16.442,0,0,0-2.869.577,5.336,5.336,0,0,0-2.485,1.41,2.1,2.1,0,0,0-.522,1.292,3.256,3.256,0,0,0,.307,1.4l-.105.05a3.392,3.392,0,0,1-.355-1.454,2.271,2.271,0,0,1,.528-1.408,5.545,5.545,0,0,1,2.551-1.541,16.741,16.741,0,0,1,2.906-.661,25.877,25.877,0,0,1,2.97-.255Z" transform="translate(-290.253 -171.761)" fill="#fff"/>
            </g>
          </g>
        </g>
        <g id="Group_35" data-name="Group 35" transform="translate(907.902 135.293)">
          <circle id="Ellipse_1" data-name="Ellipse 1" cx="16.264" cy="16.264" r="16.264" transform="translate(0.074 0)" fill="#fff" opacity="0"/>
          <g id="Group_34" data-name="Group 34" transform="translate(0 0.062)">
            <g id="Group_33" data-name="Group 33" clip-path="url(#clip-path-2)">
              <path id="Path_78" data-name="Path 78" d="M89.971,23.512c.514,1.364-.695,2.3-2.155,1.661-3.1-1.347-4.5-6.912-1.383-8.368,4.608-2.15,11.175,7.583,8.274,14.816a8.353,8.353,0,0,1-1.4,2.337,14.349,14.349,0,0,0-.519-4.487c2.631-4.495-1.006-9.7-3.179-8.981-1.085.358-.9,2.068.036,2.586l.037.018q.149.208.293.418" transform="translate(-63.642 -12.402)" fill="#fff"/>
              <path id="Path_79" data-name="Path 79" d="M110.805,98.327a16.165,16.165,0,0,1-2.247,2.6,7.846,7.846,0,0,0,1.213-1.442,10.379,10.379,0,0,0,1.7-2.2c-.2.315-.45.747-.669,1.05" transform="translate(-81.588 -73.11)" fill="#fff"/>
              <path id="Path_80" data-name="Path 80" d="M58.205,21.579c-7.365,7.736-20.261-2.921-20.225-13.826C38,3.178,40.551.062,44.34,0c.569.014,1.328.041,1.895.089a16.513,16.513,0,0,1,2.73.532,16.085,16.085,0,0,1,2.345.874l.347.166c-6.857-3.047-10.381,3.2-7.692,9.9,2.87,7.146,10.441,10.2,13.73,5.536a14.331,14.331,0,0,1,.512,4.485" transform="translate(-28.545)" fill="#fff"/>
              <path id="Path_81" data-name="Path 81" d="M30.1,35.6a17.494,17.494,0,0,1-3.388,2.426l-.415.215C13.488,43.844,1.445,26.721,4.71,17.033A7.89,7.89,0,0,1,5.464,15.4l.457-.7a17.342,17.342,0,0,1,2.247-2.6,15.838,15.838,0,0,1,2.249-1.754c-8.36,6.221-.039,24.494,12.032,26.423A9.971,9.971,0,0,0,31.3,34.173,7.842,7.842,0,0,1,30.1,35.6" transform="translate(-3.133 -7.785)" fill="#fff"/>
              <path id="Path_82" data-name="Path 82" d="M9.242,83.526a15.8,15.8,0,0,1-1.986-1.1,16.036,16.036,0,0,1-4.3-4.106,15.241,15.241,0,0,1-1-1.568,15.962,15.962,0,0,1-1.388-3.33A15.279,15.279,0,0,1,.157,71.6c-.05-.37-.121-.863-.157-1.235A17.031,17.031,0,0,0,11.175,84.276c-.586-.207-1.369-.487-1.932-.75" transform="translate(0 -52.881)" fill="#fff"/>
            </g>
          </g>
        </g>
      </g>
    </g>
    <text id="Sarah_Cornish" data-name="Sarah Cornish" transform="translate(853 62)" fill="#f7f8fa" font-size="24" font-family="CinzelDecorative-Regular, Cinzel Decorative" letter-spacing="0.111em"><tspan x="0" y="0">BIASER DE LA DÉESSE</tspan></text>
  </g>
</svg>
