<svg xmlns="http://www.w3.org/2000/svg" viewBox="0 0 298.12 401.29"><defs><style>.cls-1{fill:#421b02;}</style></defs><g id="Layer_2" data-name="Layer 2"><g id="_1" data-name="1"><path class="cls-1" d="M194.85,133.09s23.09-21.73,12.23-58.39-38-36.67-38-36.67S165,62.47,146,76.05s0,63.83,31.24,66.55c0,0-44.82,16.3-80.13-12.22,0,0-25.8,72,66.55,73.33,0,0-59.76,13.58-99.14-16.29,0,0-4.08,66.54,92.35,66.54s123.58-54.32,114.08-92.35c0,0-24.45,34-58.4,39.39,0,0,67.9-43.46,29.88-93.71,0,0,29.88,17.65,33.95,43.46,0,0,39.38,20.37,12.22,72s-138.52,51.6-201,34S-8.86,205.07,2,177.91,34.6,148,34.6,148s10.86-47.53,53-48.89c0,0,1.35-21.73,31.23-31.24S158.19,20.37,146,0c0,0,70.62,25.8,76.06,76.05S194.85,133.09,194.85,133.09Z"/><path class="cls-1" d="M25.09,249.89s73.34,29.88,119.52,28.52c0,0-20.38,70.62,17.65,93.71s46.18,4.07,51.61-16.3S237,277.05,237,277.05s16.29-10.86,23.08-14.94c0,0-31.23,88.28-31.23,126.3,0,0-27.16,16.3-84.2,12.23s-74.7-12.23-74.7-12.23S65.84,305.57,25.09,249.89Z"/></g></g></svg>