<svg xmlns="http://www.w3.org/2000/svg" viewBox="0 0 24 19.51"><defs><style>.cls-1{fill:#2b0202;}</style></defs><g id="Layer_2" data-name="Layer 2"><g id="Layer_1-2" data-name="Layer 1"><path id="iconmonstr-twitter-1" class="cls-1" d="M24,2.31a9.92,9.92,0,0,1-2.83.78A5,5,0,0,0,23.34.36a9.86,9.86,0,0,1-3.13,1.2,4.92,4.92,0,0,0-8.39,4.49A14,14,0,0,1,1.67.9,4.94,4.94,0,0,0,3.19,7.48,5,5,0,0,1,1,6.86a4.94,4.94,0,0,0,4,4.9,5,5,0,0,1-2.22.08,4.94,4.94,0,0,0,4.6,3.42A10,10,0,0,1,0,17.3a14,14,0,0,0,7.55,2.21,13.93,13.93,0,0,0,14-13.84c0-.27,0-.54,0-.81A9.94,9.94,0,0,0,24,2.31Z"/></g></g></svg>